<svg width="336" height="74" viewBox="0 0 336 74" fill="none" xmlns="http://www.w3.org/2000/svg">
<path d="M6 6V67.5H49" stroke="url(#paint0_linear_762_2515)" stroke-width="12" stroke-linecap="round"/>
<mask id="path-2-outside-1_762_2515" maskUnits="userSpaceOnUse" x="17" y="7.5" width="317" height="51" fill="black">
<rect fill="white" x="17" y="7.5" width="317" height="51"/>
<path d="M30.0995 47.052H44.4355V55.5H19.1555V10.572H30.0995V47.052ZM65.9115 56.012C62.4128 56.012 59.2555 55.2653 56.4395 53.772C53.6662 52.2787 51.4688 50.1453 49.8475 47.372C48.2688 44.5987 47.4795 41.356 47.4795 37.644C47.4795 33.9747 48.2902 30.7533 49.9115 27.98C51.5328 25.164 53.7515 23.0093 56.5675 21.516C59.3835 20.0227 62.5408 19.276 66.0395 19.276C69.5382 19.276 72.6955 20.0227 75.5115 21.516C78.3275 23.0093 80.5462 25.164 82.1675 27.98C83.7888 30.7533 84.5995 33.9747 84.5995 37.644C84.5995 41.3133 83.7675 44.556 82.1035 47.372C80.4822 50.1453 78.2422 52.2787 75.3835 53.772C72.5675 55.2653 69.4102 56.012 65.9115 56.012ZM65.9115 46.54C68.0022 46.54 69.7728 45.772 71.2235 44.236C72.7168 42.7 73.4635 40.5027 73.4635 37.644C73.4635 34.7853 72.7382 32.588 71.2875 31.052C69.8795 29.516 68.1302 28.748 66.0395 28.748C63.9062 28.748 62.1355 29.516 60.7275 31.052C59.3195 32.5453 58.6155 34.7427 58.6155 37.644C58.6155 40.5027 59.2982 42.7 60.6635 44.236C62.0715 45.772 63.8208 46.54 65.9115 46.54ZM88.2295 37.58C88.2295 33.9107 88.9122 30.6893 90.2775 27.916C91.6855 25.1427 93.5842 23.0093 95.9735 21.516C98.3628 20.0227 101.03 19.276 103.974 19.276C106.491 19.276 108.688 19.788 110.566 20.812C112.486 21.836 113.958 23.18 114.982 24.844V19.788H125.926V55.5H114.982V50.444C113.915 52.108 112.422 53.452 110.502 54.476C108.624 55.5 106.427 56.012 103.91 56.012C101.008 56.012 98.3628 55.2653 95.9735 53.772C93.5842 52.236 91.6855 50.0813 90.2775 47.308C88.9122 44.492 88.2295 41.2493 88.2295 37.58ZM114.982 37.644C114.982 34.9133 114.214 32.7587 112.678 31.18C111.184 29.6013 109.35 28.812 107.174 28.812C104.998 28.812 103.142 29.6013 101.606 31.18C100.112 32.716 99.3655 34.8493 99.3655 37.58C99.3655 40.3107 100.112 42.4867 101.606 44.108C103.142 45.6867 104.998 46.476 107.174 46.476C109.35 46.476 111.184 45.6867 112.678 44.108C114.214 42.5293 114.982 40.3747 114.982 37.644ZM155.603 19.404C159.784 19.404 163.112 20.7693 165.587 23.5C168.104 26.188 169.363 29.9 169.363 34.636V55.5H158.483V36.108C158.483 33.7187 157.864 31.8627 156.627 30.54C155.39 29.2173 153.726 28.556 151.635 28.556C149.544 28.556 147.88 29.2173 146.643 30.54C145.406 31.8627 144.787 33.7187 144.787 36.108V55.5H133.843V19.788H144.787V24.524C145.896 22.9453 147.39 21.708 149.267 20.812C151.144 19.8733 153.256 19.404 155.603 19.404Z"/>
<path d="M188.674 32.972C188.674 28.5347 189.635 24.588 191.555 21.132C193.475 17.6333 196.141 14.924 199.555 13.004C203.011 11.0413 206.915 10.06 211.267 10.06C216.6 10.06 221.165 11.468 224.963 14.284C228.76 17.1 231.299 20.94 232.579 25.804H220.547C219.651 23.9267 218.371 22.4973 216.707 21.516C215.085 20.5347 213.229 20.044 211.139 20.044C207.768 20.044 205.037 21.2173 202.947 23.564C200.856 25.9107 199.811 29.0467 199.811 32.972C199.811 36.8973 200.856 40.0333 202.947 42.38C205.037 44.7267 207.768 45.9 211.139 45.9C213.229 45.9 215.085 45.4093 216.707 44.428C218.371 43.4467 219.651 42.0173 220.547 40.14H232.579C231.299 45.004 228.76 48.844 224.963 51.66C221.165 54.4333 216.6 55.82 211.267 55.82C206.915 55.82 203.011 54.86 199.555 52.94C196.141 50.9773 193.475 48.268 191.555 44.812C189.635 41.356 188.674 37.4093 188.674 32.972Z"/>
<path d="M262.193 55.5L252.849 38.54H250.225V55.5H239.281V10.572H257.649C261.19 10.572 264.198 11.1907 266.673 12.428C269.19 13.6653 271.067 15.372 272.305 17.548C273.542 19.6813 274.161 22.0707 274.161 24.716C274.161 27.7027 273.307 30.3693 271.601 32.716C269.937 35.0627 267.462 36.7267 264.177 37.708L274.545 55.5H262.193ZM250.225 30.796H257.009C259.014 30.796 260.507 30.3053 261.489 29.324C262.513 28.3427 263.025 26.956 263.025 25.164C263.025 23.4573 262.513 22.1133 261.489 21.132C260.507 20.1507 259.014 19.66 257.009 19.66H250.225V30.796ZM331.911 10.572V55.5H320.967V28.556L310.919 55.5H302.087L291.975 28.492V55.5H281.031V10.572H293.958L306.567 41.676L319.047 10.572H331.911Z"/>
</mask>
<path d="M30.0995 47.052H44.4355V55.5H19.1555V10.572H30.0995V47.052ZM65.9115 56.012C62.4128 56.012 59.2555 55.2653 56.4395 53.772C53.6662 52.2787 51.4688 50.1453 49.8475 47.372C48.2688 44.5987 47.4795 41.356 47.4795 37.644C47.4795 33.9747 48.2902 30.7533 49.9115 27.98C51.5328 25.164 53.7515 23.0093 56.5675 21.516C59.3835 20.0227 62.5408 19.276 66.0395 19.276C69.5382 19.276 72.6955 20.0227 75.5115 21.516C78.3275 23.0093 80.5462 25.164 82.1675 27.98C83.7888 30.7533 84.5995 33.9747 84.5995 37.644C84.5995 41.3133 83.7675 44.556 82.1035 47.372C80.4822 50.1453 78.2422 52.2787 75.3835 53.772C72.5675 55.2653 69.4102 56.012 65.9115 56.012ZM65.9115 46.54C68.0022 46.54 69.7728 45.772 71.2235 44.236C72.7168 42.7 73.4635 40.5027 73.4635 37.644C73.4635 34.7853 72.7382 32.588 71.2875 31.052C69.8795 29.516 68.1302 28.748 66.0395 28.748C63.9062 28.748 62.1355 29.516 60.7275 31.052C59.3195 32.5453 58.6155 34.7427 58.6155 37.644C58.6155 40.5027 59.2982 42.7 60.6635 44.236C62.0715 45.772 63.8208 46.54 65.9115 46.54ZM88.2295 37.58C88.2295 33.9107 88.9122 30.6893 90.2775 27.916C91.6855 25.1427 93.5842 23.0093 95.9735 21.516C98.3628 20.0227 101.03 19.276 103.974 19.276C106.491 19.276 108.688 19.788 110.566 20.812C112.486 21.836 113.958 23.18 114.982 24.844V19.788H125.926V55.5H114.982V50.444C113.915 52.108 112.422 53.452 110.502 54.476C108.624 55.5 106.427 56.012 103.91 56.012C101.008 56.012 98.3628 55.2653 95.9735 53.772C93.5842 52.236 91.6855 50.0813 90.2775 47.308C88.9122 44.492 88.2295 41.2493 88.2295 37.58ZM114.982 37.644C114.982 34.9133 114.214 32.7587 112.678 31.18C111.184 29.6013 109.35 28.812 107.174 28.812C104.998 28.812 103.142 29.6013 101.606 31.18C100.112 32.716 99.3655 34.8493 99.3655 37.58C99.3655 40.3107 100.112 42.4867 101.606 44.108C103.142 45.6867 104.998 46.476 107.174 46.476C109.35 46.476 111.184 45.6867 112.678 44.108C114.214 42.5293 114.982 40.3747 114.982 37.644ZM155.603 19.404C159.784 19.404 163.112 20.7693 165.587 23.5C168.104 26.188 169.363 29.9 169.363 34.636V55.5H158.483V36.108C158.483 33.7187 157.864 31.8627 156.627 30.54C155.39 29.2173 153.726 28.556 151.635 28.556C149.544 28.556 147.88 29.2173 146.643 30.54C145.406 31.8627 144.787 33.7187 144.787 36.108V55.5H133.843V19.788H144.787V24.524C145.896 22.9453 147.39 21.708 149.267 20.812C151.144 19.8733 153.256 19.404 155.603 19.404Z" fill="black"/>
<path d="M188.674 32.972C188.674 28.5347 189.635 24.588 191.555 21.132C193.475 17.6333 196.141 14.924 199.555 13.004C203.011 11.0413 206.915 10.06 211.267 10.06C216.6 10.06 221.165 11.468 224.963 14.284C228.76 17.1 231.299 20.94 232.579 25.804H220.547C219.651 23.9267 218.371 22.4973 216.707 21.516C215.085 20.5347 213.229 20.044 211.139 20.044C207.768 20.044 205.037 21.2173 202.947 23.564C200.856 25.9107 199.811 29.0467 199.811 32.972C199.811 36.8973 200.856 40.0333 202.947 42.38C205.037 44.7267 207.768 45.9 211.139 45.9C213.229 45.9 215.085 45.4093 216.707 44.428C218.371 43.4467 219.651 42.0173 220.547 40.14H232.579C231.299 45.004 228.76 48.844 224.963 51.66C221.165 54.4333 216.6 55.82 211.267 55.82C206.915 55.82 203.011 54.86 199.555 52.94C196.141 50.9773 193.475 48.268 191.555 44.812C189.635 41.356 188.674 37.4093 188.674 32.972Z" fill="url(#paint1_linear_762_2515)"/>
<path d="M262.193 55.5L252.849 38.54H250.225V55.5H239.281V10.572H257.649C261.19 10.572 264.198 11.1907 266.673 12.428C269.19 13.6653 271.067 15.372 272.305 17.548C273.542 19.6813 274.161 22.0707 274.161 24.716C274.161 27.7027 273.307 30.3693 271.601 32.716C269.937 35.0627 267.462 36.7267 264.177 37.708L274.545 55.5H262.193ZM250.225 30.796H257.009C259.014 30.796 260.507 30.3053 261.489 29.324C262.513 28.3427 263.025 26.956 263.025 25.164C263.025 23.4573 262.513 22.1133 261.489 21.132C260.507 20.1507 259.014 19.66 257.009 19.66H250.225V30.796ZM331.911 10.572V55.5H320.967V28.556L310.919 55.5H302.087L291.975 28.492V55.5H281.031V10.572H293.958L306.567 41.676L319.047 10.572H331.911Z" fill="url(#paint2_linear_762_2515)"/>
<path d="M30.0995 47.052H28.0995V49.052H30.0995V47.052ZM44.4355 47.052H46.4355V45.052H44.4355V47.052ZM44.4355 55.5V57.5H46.4355V55.5H44.4355ZM19.1555 55.5H17.1555V57.5H19.1555V55.5ZM19.1555 10.572V8.572H17.1555V10.572H19.1555ZM30.0995 10.572H32.0995V8.572H30.0995V10.572ZM30.0995 49.052H44.4355V45.052H30.0995V49.052ZM42.4355 47.052V55.5H46.4355V47.052H42.4355ZM44.4355 53.5H19.1555V57.5H44.4355V53.5ZM21.1555 55.5V10.572H17.1555V55.5H21.1555ZM19.1555 12.572H30.0995V8.572H19.1555V12.572ZM28.0995 10.572V47.052H32.0995V10.572H28.0995ZM56.4395 53.772L55.4913 55.533L55.5025 55.5389L56.4395 53.772ZM49.8475 47.372L48.1094 48.3614L48.1151 48.3714L48.1209 48.3814L49.8475 47.372ZM49.9115 27.98L51.6381 28.9894L51.6447 28.9779L49.9115 27.98ZM56.5675 21.516L57.5045 23.2829L57.5045 23.2829L56.5675 21.516ZM75.5115 21.516L74.5745 23.2829L74.5745 23.2829L75.5115 21.516ZM82.1675 27.98L80.4342 28.978L80.4409 28.9894L82.1675 27.98ZM82.1035 47.372L80.3816 46.3545L80.3769 46.3626L82.1035 47.372ZM75.3835 53.772L74.4574 51.9993L74.4465 52.0051L75.3835 53.772ZM71.2235 44.236L69.7895 42.8418L69.7794 42.8522L69.7695 42.8628L71.2235 44.236ZM71.2875 31.052L69.8132 32.4034L69.8233 32.4144L69.8335 32.4252L71.2875 31.052ZM60.7275 31.052L62.1827 32.424L62.1923 32.4138L62.2018 32.4034L60.7275 31.052ZM60.6635 44.236L59.1687 45.5647L59.1789 45.5762L59.1892 45.5874L60.6635 44.236ZM65.9115 54.012C62.707 54.012 59.8764 53.3308 57.3765 52.0051L55.5025 55.5389C58.6346 57.1999 62.1187 58.012 65.9115 58.012V54.012ZM57.3877 52.0111C54.9447 50.6956 53.0138 48.8253 51.5741 46.3626L48.1209 48.3814C49.9238 51.4654 52.3877 53.8618 55.4913 55.5329L57.3877 52.0111ZM51.5856 46.3826C50.2048 43.9568 49.4795 41.0662 49.4795 37.644H45.4795C45.4795 41.6458 46.3329 45.2405 48.1094 48.3614L51.5856 46.3826ZM49.4795 37.644C49.4795 34.2781 50.22 31.415 51.6381 28.9894L48.1849 26.9706C46.3603 30.0917 45.4795 33.6712 45.4795 37.644H49.4795ZM51.6447 28.9779C53.0822 26.4814 55.0277 24.5964 57.5045 23.2829L55.6305 19.7491C52.4753 21.4223 49.9835 23.8466 48.1783 26.9821L51.6447 28.9779ZM57.5045 23.2829C60.0044 21.9572 62.835 21.276 66.0395 21.276V17.276C62.2467 17.276 58.7626 18.0881 55.6305 19.7491L57.5045 23.2829ZM66.0395 21.276C69.244 21.276 72.0746 21.9572 74.5745 23.2829L76.4485 19.7491C73.3164 18.0881 69.8323 17.276 66.0395 17.276V21.276ZM74.5745 23.2829C77.0513 24.5964 78.9968 26.4814 80.4343 28.9779L83.9007 26.9821C82.0955 23.8466 79.6037 21.4223 76.4485 19.7491L74.5745 23.2829ZM80.4409 28.9894C81.859 31.415 82.5995 34.2781 82.5995 37.644H86.5995C86.5995 33.6712 85.7187 30.0917 83.8941 26.9706L80.4409 28.9894ZM82.5995 37.644C82.5995 41 81.8421 43.883 80.3816 46.3545L83.8254 48.3895C85.6929 45.229 86.5995 41.6266 86.5995 37.644H82.5995ZM80.3769 46.3626C78.9462 48.8099 76.9842 50.6794 74.4575 51.9993L76.3095 55.5447C79.5001 53.878 82.0182 51.4807 83.8301 48.3814L80.3769 46.3626ZM74.4465 52.0051C71.9466 53.3308 69.116 54.012 65.9115 54.012V58.012C69.7043 58.012 73.1884 57.1999 76.3205 55.5389L74.4465 52.0051ZM65.9115 48.54C68.559 48.54 70.8536 47.5405 72.6775 45.6092L69.7695 42.8628C68.6921 44.0035 67.4453 44.54 65.9115 44.54V48.54ZM72.6575 45.6302C74.6219 43.6096 75.4635 40.8443 75.4635 37.644H71.4635C71.4635 40.161 70.8117 41.7904 69.7895 42.8418L72.6575 45.6302ZM75.4635 37.644C75.4635 34.4584 74.6514 31.7009 72.7415 29.6788L69.8335 32.4252C70.825 33.4751 71.4635 35.1123 71.4635 37.644H75.4635ZM72.7618 29.7005C70.9735 27.7497 68.6886 26.748 66.0395 26.748V30.748C67.5717 30.748 68.7855 31.2823 69.8132 32.4034L72.7618 29.7005ZM66.0395 26.748C63.3607 26.748 61.0501 27.7402 59.2532 29.7005L62.2018 32.4034C63.2209 31.2918 64.4516 30.748 66.0395 30.748V26.748ZM59.2723 29.68C57.3922 31.674 56.6155 34.444 56.6155 37.644H60.6155C60.6155 35.0413 61.2468 33.4166 62.1827 32.424L59.2723 29.68ZM56.6155 37.644C56.6155 40.801 57.3699 43.5411 59.1687 45.5647L62.1583 42.9073C61.2264 41.8589 60.6155 40.2043 60.6155 37.644H56.6155ZM59.1892 45.5874C60.9775 47.5383 63.2624 48.54 65.9115 48.54V44.54C64.3793 44.54 63.1655 44.0057 62.1378 42.8845L59.1892 45.5874ZM90.2775 27.916L88.4942 27.0106L88.4886 27.0216L88.4832 27.0326L90.2775 27.916ZM95.9735 21.516L97.0335 23.212L97.0335 23.212L95.9735 21.516ZM110.566 20.812L109.608 22.5678L109.616 22.5723L109.624 22.5767L110.566 20.812ZM114.982 24.844L113.278 25.8922L116.982 31.9101V24.844H114.982ZM114.982 19.788V17.788H112.982V19.788H114.982ZM125.926 19.788H127.926V17.788H125.926V19.788ZM125.926 55.5V57.5H127.926V55.5H125.926ZM114.982 55.5H112.982V57.5H114.982V55.5ZM114.982 50.444H116.982V43.618L113.298 49.3647L114.982 50.444ZM110.502 54.476L109.56 52.7113L109.552 52.7157L109.544 52.7202L110.502 54.476ZM95.9735 53.772L94.892 55.4544L94.9027 55.4612L94.9135 55.468L95.9735 53.772ZM90.2775 47.308L88.4779 48.1805L88.4859 48.197L88.4942 48.2134L90.2775 47.308ZM112.678 31.18L111.225 32.5544L111.234 32.5646L111.244 32.5747L112.678 31.18ZM101.606 31.18L100.172 29.7853L100.172 29.7858L101.606 31.18ZM101.606 44.108L100.134 45.463L100.153 45.4831L100.172 45.5027L101.606 44.108ZM112.678 44.108L111.244 42.7133L111.234 42.7234L111.225 42.7336L112.678 44.108ZM90.2295 37.58C90.2295 34.1602 90.8648 31.2511 92.0718 28.7994L88.4832 27.0326C86.9595 30.1276 86.2295 33.6612 86.2295 37.58H90.2295ZM92.0608 28.8214C93.3217 26.3378 94.9841 24.4929 97.0335 23.212L94.9135 19.82C92.1842 21.5258 90.0493 23.9476 88.4942 27.0106L92.0608 28.8214ZM97.0335 23.212C99.0903 21.9265 101.387 21.276 103.974 21.276V17.276C100.672 17.276 97.6353 18.1189 94.9135 19.82L97.0335 23.212ZM103.974 21.276C106.216 21.276 108.072 21.7303 109.608 22.5678L111.523 19.0562C109.304 17.8457 106.766 17.276 103.974 17.276V21.276ZM109.624 22.5767C111.268 23.4532 112.461 24.5638 113.278 25.8922L116.685 23.7958C115.454 21.7962 113.703 20.2188 111.507 19.0473L109.624 22.5767ZM116.982 24.844V19.788H112.982V24.844H116.982ZM114.982 21.788H125.926V17.788H114.982V21.788ZM123.926 19.788V55.5H127.926V19.788H123.926ZM125.926 53.5H114.982V57.5H125.926V53.5ZM116.982 55.5V50.444H112.982V55.5H116.982ZM113.298 49.3647C112.434 50.712 111.209 51.8318 109.56 52.7113L111.443 56.2407C113.634 55.0722 115.396 53.504 116.665 51.5233L113.298 49.3647ZM109.544 52.7202C108.008 53.5577 106.152 54.012 103.91 54.012V58.012C106.702 58.012 109.24 57.4423 111.459 56.2318L109.544 52.7202ZM103.91 54.012C101.371 54.012 99.0952 53.3645 97.0335 52.076L94.9135 55.468C97.6305 57.1661 100.645 58.012 103.91 58.012V54.012ZM97.055 52.0896C94.9924 50.7637 93.3238 48.8902 92.0608 46.4026L88.4942 48.2134C90.0472 51.2725 92.1759 53.7083 94.892 55.4544L97.055 52.0896ZM92.0771 46.4355C90.8646 43.9345 90.2295 40.9989 90.2295 37.58H86.2295C86.2295 41.4997 86.9598 45.0495 88.4779 48.1805L92.0771 46.4355ZM116.982 37.644C116.982 34.5241 116.093 31.8222 114.111 29.7853L111.244 32.5747C112.334 33.6952 112.982 35.3026 112.982 37.644H116.982ZM114.13 29.8056C112.259 27.827 109.898 26.812 107.174 26.812V30.812C108.801 30.812 110.11 31.3757 111.225 32.5544L114.13 29.8056ZM107.174 26.812C104.45 26.812 102.079 27.825 100.172 29.7853L103.039 32.5747C104.204 31.3777 105.545 30.812 107.174 30.812V26.812ZM100.172 29.7858C98.2229 31.7901 97.3655 34.4781 97.3655 37.58H101.366C101.366 35.2206 102.001 33.6419 103.039 32.5742L100.172 29.7858ZM97.3655 37.58C97.3655 40.6872 98.2246 43.3894 100.134 45.463L103.077 42.753C102 41.5839 101.366 39.9341 101.366 37.58H97.3655ZM100.172 45.5027C102.079 47.463 104.45 48.476 107.174 48.476V44.476C105.545 44.476 104.204 43.9103 103.039 42.7133L100.172 45.5027ZM107.174 48.476C109.898 48.476 112.259 47.461 114.13 45.4824L111.225 42.7336C110.11 43.9123 108.801 44.476 107.174 44.476V48.476ZM114.111 45.5027C116.093 43.4658 116.982 40.7639 116.982 37.644H112.982C112.982 39.9854 112.334 41.5928 111.244 42.7133L114.111 45.5027ZM165.587 23.5L164.105 24.843L164.116 24.8552L164.127 24.8671L165.587 23.5ZM169.363 55.5V57.5H171.363V55.5H169.363ZM158.483 55.5H156.483V57.5H158.483V55.5ZM156.627 30.54L155.166 31.9063L155.166 31.9063L156.627 30.54ZM146.643 30.54L148.104 31.9063L148.104 31.9063L146.643 30.54ZM144.787 55.5V57.5H146.787V55.5H144.787ZM133.843 55.5H131.843V57.5H133.843V55.5ZM133.843 19.788V17.788H131.843V19.788H133.843ZM144.787 19.788H146.787V17.788H144.787V19.788ZM144.787 24.524H142.787V30.8487L146.423 25.6739L144.787 24.524ZM149.267 20.812L150.128 22.617L150.145 22.6091L150.161 22.6009L149.267 20.812ZM155.603 21.404C159.304 21.404 162.063 22.5892 164.105 24.843L167.069 22.157C164.162 18.9494 160.265 17.404 155.603 17.404V21.404ZM164.127 24.8671C166.207 27.0876 167.363 30.2573 167.363 34.636H171.363C171.363 29.5427 170.002 25.2884 167.047 22.1329L164.127 24.8671ZM167.363 34.636V55.5H171.363V34.636H167.363ZM169.363 53.5H158.483V57.5H169.363V53.5ZM160.483 55.5V36.108H156.483V55.5H160.483ZM160.483 36.108C160.483 33.3776 159.77 30.9727 158.088 29.1737L155.166 31.9063C155.958 32.7527 156.483 34.0598 156.483 36.108H160.483ZM158.088 29.1737C156.413 27.3832 154.186 26.556 151.635 26.556V30.556C153.266 30.556 154.367 31.0515 155.166 31.9063L158.088 29.1737ZM151.635 26.556C149.084 26.556 146.857 27.3832 145.182 29.1737L148.104 31.9063C148.903 31.0515 150.004 30.556 151.635 30.556V26.556ZM145.182 29.1737C143.5 30.9727 142.787 33.3776 142.787 36.108H146.787C146.787 34.0598 147.312 32.7527 148.104 31.9063L145.182 29.1737ZM142.787 36.108V55.5H146.787V36.108H142.787ZM144.787 53.5H133.843V57.5H144.787V53.5ZM135.843 55.5V19.788H131.843V55.5H135.843ZM133.843 21.788H144.787V17.788H133.843V21.788ZM142.787 19.788V24.524H146.787V19.788H142.787ZM146.423 25.6739C147.32 24.3984 148.536 23.3768 150.128 22.617L148.406 19.007C146.243 20.0392 144.473 21.4923 143.151 23.3741L146.423 25.6739ZM150.161 22.6009C151.73 21.8167 153.53 21.404 155.603 21.404V17.404C152.983 17.404 150.559 17.93 148.373 19.0231L150.161 22.6009ZM191.555 21.132L193.303 22.1033L193.308 22.0942L191.555 21.132ZM199.555 13.004L200.535 14.7472L200.542 14.7431L199.555 13.004ZM224.963 14.284L226.154 12.6775L226.154 12.6775L224.963 14.284ZM232.579 25.804V27.804H235.173L234.513 25.295L232.579 25.804ZM220.547 25.804L218.742 26.6655L219.285 27.804H220.547V25.804ZM216.707 21.516L215.671 23.227L215.681 23.2329L215.691 23.2387L216.707 21.516ZM202.947 23.564L204.44 24.8944L204.44 24.8944L202.947 23.564ZM202.947 42.38L201.453 43.7104L202.947 42.38ZM216.707 44.428L215.691 42.7053L215.681 42.7111L215.671 42.717L216.707 44.428ZM220.547 40.14V38.14H219.285L218.742 39.2785L220.547 40.14ZM232.579 40.14L234.513 40.649L235.173 38.14H232.579V40.14ZM224.963 51.66L226.142 53.2751L226.148 53.2708L226.154 53.2665L224.963 51.66ZM199.555 52.94L198.558 54.6738L198.57 54.6812L198.583 54.6883L199.555 52.94ZM191.555 44.812L193.303 43.8407L193.303 43.8407L191.555 44.812ZM190.674 32.972C190.674 28.8322 191.567 25.2272 193.303 22.1033L189.806 20.1607C187.702 23.9488 186.674 28.2371 186.674 32.972H190.674ZM193.308 22.0942C195.052 18.9163 197.454 16.4804 200.535 14.7471L198.574 11.2608C194.829 13.3676 191.897 16.3504 189.801 20.1698L193.308 22.0942ZM200.542 14.7431C203.669 12.9674 207.227 12.06 211.267 12.06V8.06C206.602 8.06 202.352 9.11528 198.567 11.2649L200.542 14.7431ZM211.267 12.06C216.228 12.06 220.362 13.3623 223.771 15.8905L226.154 12.6775C221.968 9.5737 216.971 8.06 211.267 8.06V12.06ZM223.771 15.8905C227.179 18.4177 229.472 21.8584 230.644 26.313L234.513 25.295C233.125 20.0216 230.341 15.7823 226.154 12.6775L223.771 15.8905ZM232.579 23.804H220.547V27.804H232.579V23.804ZM222.351 24.9425C221.298 22.7349 219.756 20.9925 217.722 19.7933L215.691 23.2387C216.985 24.0022 218.003 25.1184 218.742 26.6655L222.351 24.9425ZM217.742 19.805C215.777 18.6155 213.555 18.044 211.139 18.044V22.044C212.903 22.044 214.394 22.4539 215.671 23.227L217.742 19.805ZM211.139 18.044C207.244 18.044 203.953 19.4273 201.453 22.2336L204.44 24.8944C206.121 23.0073 208.292 22.044 211.139 22.044V18.044ZM201.453 22.2336C198.961 25.0313 197.811 28.6829 197.811 32.972H201.811C201.811 29.4104 202.751 26.79 204.44 24.8944L201.453 22.2336ZM197.811 32.972C197.811 37.2611 198.961 40.9126 201.453 43.7104L204.44 41.0496C202.751 39.154 201.811 36.5336 201.811 32.972H197.811ZM201.453 43.7104C203.953 46.5167 207.244 47.9 211.139 47.9V43.9C208.292 43.9 206.121 42.9367 204.44 41.0496L201.453 43.7104ZM211.139 47.9C213.555 47.9 215.777 47.3285 217.742 46.139L215.671 42.717C214.394 43.4901 212.903 43.9 211.139 43.9V47.9ZM217.722 46.1507C219.756 44.9515 221.298 43.2091 222.351 41.0015L218.742 39.2785C218.003 40.8256 216.985 41.9418 215.691 42.7053L217.722 46.1507ZM220.547 42.14H232.579V38.14H220.547V42.14ZM230.644 39.631C229.472 44.0856 227.179 47.5263 223.771 50.0535L226.154 53.2665C230.341 50.1617 233.125 45.9224 234.513 40.649L230.644 39.631ZM223.783 50.0449C220.373 52.5352 216.235 53.82 211.267 53.82V57.82C216.965 57.82 221.957 56.3314 226.142 53.2751L223.783 50.0449ZM211.267 53.82C207.219 53.82 203.655 52.9304 200.526 51.1917L198.583 54.6883C202.366 56.7896 206.61 57.82 211.267 57.82V53.82ZM200.551 51.2062C197.455 49.4255 195.047 46.9804 193.303 43.8407L189.806 45.7833C191.902 49.5556 194.828 52.5292 198.558 54.6738L200.551 51.2062ZM193.303 43.8407C191.567 40.7168 190.674 37.1118 190.674 32.972H186.674C186.674 37.7069 187.702 41.9952 189.806 45.7833L193.303 43.8407ZM262.193 55.5L260.441 56.4651L261.011 57.5H262.193V55.5ZM252.849 38.54L254.6 37.5749L254.03 36.54H252.849V38.54ZM250.225 38.54V36.54H248.225V38.54H250.225ZM250.225 55.5V57.5H252.225V55.5H250.225ZM239.281 55.5H237.281V57.5H239.281V55.5ZM239.281 10.572V8.572H237.281V10.572H239.281ZM266.673 12.428L265.778 14.2169L265.79 14.2229L266.673 12.428ZM272.305 17.548L270.566 18.5366L270.57 18.544L270.574 18.5514L272.305 17.548ZM271.601 32.716L269.983 31.5397L269.976 31.5494L269.969 31.5591L271.601 32.716ZM264.177 37.708L263.604 35.7917L261.169 36.5191L262.448 38.715L264.177 37.708ZM274.545 55.5V57.5H278.025L276.273 54.493L274.545 55.5ZM250.225 30.796H248.225V32.796H250.225V30.796ZM261.489 29.324L260.105 27.88L260.089 27.8947L260.074 27.9098L261.489 29.324ZM261.489 21.132L260.074 22.5462L260.089 22.5613L260.105 22.576L261.489 21.132ZM250.225 19.66V17.66H248.225V19.66H250.225ZM263.944 54.5349L254.6 37.5749L251.097 39.5051L260.441 56.4651L263.944 54.5349ZM252.849 36.54H250.225V40.54H252.849V36.54ZM248.225 38.54V55.5H252.225V38.54H248.225ZM250.225 53.5H239.281V57.5H250.225V53.5ZM241.281 55.5V10.572H237.281V55.5H241.281ZM239.281 12.572H257.649V8.572H239.281V12.572ZM257.649 12.572C260.964 12.572 263.648 13.1517 265.778 14.2169L267.567 10.6391C264.748 9.22963 261.416 8.572 257.649 8.572V12.572ZM265.79 14.2229C267.993 15.3055 269.55 16.7503 270.566 18.5366L274.043 16.5594C272.584 13.9937 270.387 12.0252 267.555 10.6331L265.79 14.2229ZM270.574 18.5514C271.622 20.3578 272.161 22.3966 272.161 24.716H276.161C276.161 21.7447 275.462 19.0049 274.035 16.5446L270.574 18.5514ZM272.161 24.716C272.161 27.2932 271.433 29.5454 269.983 31.5397L273.218 33.8923C275.181 31.1933 276.161 28.1121 276.161 24.716H272.161ZM269.969 31.5591C268.61 33.4752 266.547 34.9127 263.604 35.7917L264.749 39.6243C268.377 38.5406 271.263 36.6502 273.232 33.8729L269.969 31.5591ZM262.448 38.715L272.816 56.507L276.273 54.493L265.905 36.701L262.448 38.715ZM274.545 53.5H262.193V57.5H274.545V53.5ZM250.225 32.796H257.009V28.796H250.225V32.796ZM257.009 32.796C259.308 32.796 261.407 32.2341 262.903 30.7382L260.074 27.9098C259.608 28.3766 258.72 28.796 257.009 28.796V32.796ZM262.872 30.768C264.388 29.3157 265.025 27.349 265.025 25.164H261.025C261.025 26.563 260.637 27.3696 260.105 27.88L262.872 30.768ZM265.025 25.164C265.025 23.0315 264.368 21.1219 262.872 19.688L260.105 22.576C260.657 23.1048 261.025 23.8832 261.025 25.164H265.025ZM262.903 19.7178C261.407 18.2219 259.308 17.66 257.009 17.66V21.66C258.72 21.66 259.608 22.0794 260.074 22.5462L262.903 19.7178ZM257.009 17.66H250.225V21.66H257.009V17.66ZM248.225 19.66V30.796H252.225V19.66H248.225ZM331.911 10.572H333.911V8.572H331.911V10.572ZM331.911 55.5V57.5H333.911V55.5H331.911ZM320.967 55.5H318.967V57.5H320.967V55.5ZM320.967 28.556H322.967L319.093 27.8572L320.967 28.556ZM310.919 55.5V57.5H312.307L312.792 56.1988L310.919 55.5ZM302.087 55.5L300.213 56.2013L300.7 57.5H302.087V55.5ZM291.975 28.492L293.848 27.7907L289.975 28.492H291.975ZM291.975 55.5V57.5H293.975V55.5H291.975ZM281.031 55.5H279.031V57.5H281.031V55.5ZM281.031 10.572V8.572H279.031V10.572H281.031ZM293.958 10.572L295.812 9.82068L295.306 8.572H293.958V10.572ZM306.567 41.676L304.713 42.4273L306.576 47.0233L308.423 42.4208L306.567 41.676ZM319.047 10.572V8.572H317.694L317.19 9.82724L319.047 10.572ZM329.911 10.572V55.5H333.911V10.572H329.911ZM331.911 53.5H320.967V57.5H331.911V53.5ZM322.967 55.5V28.556H318.967V55.5H322.967ZM319.093 27.8572L309.045 54.8012L312.792 56.1988L322.84 29.2548L319.093 27.8572ZM310.919 53.5H302.087V57.5H310.919V53.5ZM303.96 54.7987L293.848 27.7907L290.101 29.1933L300.213 56.2013L303.96 54.7987ZM289.975 28.492V55.5H293.975V28.492H289.975ZM291.975 53.5H281.031V57.5H291.975V53.5ZM283.031 55.5V10.572H279.031V55.5H283.031ZM281.031 12.572H293.958V8.572H281.031V12.572ZM292.105 11.3233L304.713 42.4273L308.42 40.9247L295.812 9.82068L292.105 11.3233ZM308.423 42.4208L320.903 11.3168L317.19 9.82724L304.71 40.9312L308.423 42.4208ZM319.047 12.572H331.911V8.572H319.047V12.572Z" fill="white" mask="url(#path-2-outside-1_762_2515)"/>
<defs>
<linearGradient id="paint0_linear_762_2515" x1="26" y1="27.5" x2="26" y2="67.5" gradientUnits="userSpaceOnUse">
<stop stop-color="#4D4DFB"/>
<stop offset="1" stop-color="#523DC0"/>
</linearGradient>
<linearGradient id="paint1_linear_762_2515" x1="209" y1="11" x2="208.5" y2="56" gradientUnits="userSpaceOnUse">
<stop stop-color="#FFC727"/>
<stop offset="0.324" stop-color="#DC5C4B"/>
<stop offset="0.724" stop-color="#DC4B6C"/>
<stop offset="1" stop-color="#F26727"/>
</linearGradient>
<linearGradient id="paint2_linear_762_2515" x1="286.5" y1="56" x2="286" y2="9.5" gradientUnits="userSpaceOnUse">
<stop stop-color="#EE6232"/>
<stop offset="0.33" stop-color="#DC5B4E"/>
<stop offset="0.665" stop-color="#DC4B6C"/>
<stop offset="0.9999" stop-color="#FEC329"/>
</linearGradient>
</defs>
</svg>
