<svg width="336" height="74" viewBox="0 0 336 74" fill="none" xmlns="http://www.w3.org/2000/svg">
<path d="M6 6V67.5H49" stroke="url(#paint0_linear_762_2518)" stroke-width="12" stroke-linecap="round"/>
<path d="M30.0995 47.052H44.4355V55.5H19.1555V10.572H30.0995V47.052ZM65.9115 56.012C62.4128 56.012 59.2555 55.2653 56.4395 53.772C53.6662 52.2787 51.4688 50.1453 49.8475 47.372C48.2688 44.5987 47.4795 41.356 47.4795 37.644C47.4795 33.9747 48.2902 30.7533 49.9115 27.98C51.5328 25.164 53.7515 23.0093 56.5675 21.516C59.3835 20.0227 62.5408 19.276 66.0395 19.276C69.5382 19.276 72.6955 20.0227 75.5115 21.516C78.3275 23.0093 80.5462 25.164 82.1675 27.98C83.7888 30.7533 84.5995 33.9747 84.5995 37.644C84.5995 41.3133 83.7675 44.556 82.1035 47.372C80.4822 50.1453 78.2422 52.2787 75.3835 53.772C72.5675 55.2653 69.4102 56.012 65.9115 56.012ZM65.9115 46.54C68.0022 46.54 69.7728 45.772 71.2235 44.236C72.7168 42.7 73.4635 40.5027 73.4635 37.644C73.4635 34.7853 72.7382 32.588 71.2875 31.052C69.8795 29.516 68.1302 28.748 66.0395 28.748C63.9062 28.748 62.1355 29.516 60.7275 31.052C59.3195 32.5453 58.6155 34.7427 58.6155 37.644C58.6155 40.5027 59.2982 42.7 60.6635 44.236C62.0715 45.772 63.8208 46.54 65.9115 46.54ZM88.2295 37.58C88.2295 33.9107 88.9122 30.6893 90.2775 27.916C91.6855 25.1427 93.5842 23.0093 95.9735 21.516C98.3628 20.0227 101.03 19.276 103.974 19.276C106.491 19.276 108.688 19.788 110.566 20.812C112.486 21.836 113.958 23.18 114.982 24.844V19.788H125.926V55.5H114.982V50.444C113.915 52.108 112.422 53.452 110.502 54.476C108.624 55.5 106.427 56.012 103.91 56.012C101.008 56.012 98.3628 55.2653 95.9735 53.772C93.5842 52.236 91.6855 50.0813 90.2775 47.308C88.9122 44.492 88.2295 41.2493 88.2295 37.58ZM114.982 37.644C114.982 34.9133 114.214 32.7587 112.678 31.18C111.184 29.6013 109.35 28.812 107.174 28.812C104.998 28.812 103.142 29.6013 101.606 31.18C100.112 32.716 99.3655 34.8493 99.3655 37.58C99.3655 40.3107 100.112 42.4867 101.606 44.108C103.142 45.6867 104.998 46.476 107.174 46.476C109.35 46.476 111.184 45.6867 112.678 44.108C114.214 42.5293 114.982 40.3747 114.982 37.644ZM155.603 19.404C159.784 19.404 163.112 20.7693 165.587 23.5C168.104 26.188 169.363 29.9 169.363 34.636V55.5H158.483V36.108C158.483 33.7187 157.864 31.8627 156.627 30.54C155.39 29.2173 153.726 28.556 151.635 28.556C149.544 28.556 147.88 29.2173 146.643 30.54C145.406 31.8627 144.787 33.7187 144.787 36.108V55.5H133.843V19.788H144.787V24.524C145.896 22.9453 147.39 21.708 149.267 20.812C151.144 19.8733 153.256 19.404 155.603 19.404Z" fill="black"/>
<path d="M188.674 32.972C188.674 28.5347 189.635 24.588 191.555 21.132C193.475 17.6333 196.141 14.924 199.555 13.004C203.011 11.0413 206.915 10.06 211.267 10.06C216.6 10.06 221.165 11.468 224.963 14.284C228.76 17.1 231.299 20.94 232.579 25.804H220.547C219.651 23.9267 218.371 22.4973 216.707 21.516C215.085 20.5347 213.229 20.044 211.139 20.044C207.768 20.044 205.037 21.2173 202.947 23.564C200.856 25.9107 199.811 29.0467 199.811 32.972C199.811 36.8973 200.856 40.0333 202.947 42.38C205.037 44.7267 207.768 45.9 211.139 45.9C213.229 45.9 215.085 45.4093 216.707 44.428C218.371 43.4467 219.651 42.0173 220.547 40.14H232.579C231.299 45.004 228.76 48.844 224.963 51.66C221.165 54.4333 216.6 55.82 211.267 55.82C206.915 55.82 203.011 54.86 199.555 52.94C196.141 50.9773 193.475 48.268 191.555 44.812C189.635 41.356 188.674 37.4093 188.674 32.972Z" fill="url(#paint1_linear_762_2518)"/>
<path d="M262.193 55.5L252.849 38.54H250.225V55.5H239.281V10.572H257.649C261.19 10.572 264.198 11.1907 266.673 12.428C269.19 13.6653 271.067 15.372 272.305 17.548C273.542 19.6813 274.161 22.0707 274.161 24.716C274.161 27.7027 273.307 30.3693 271.601 32.716C269.937 35.0627 267.462 36.7267 264.177 37.708L274.545 55.5H262.193ZM250.225 30.796H257.009C259.014 30.796 260.507 30.3053 261.489 29.324C262.513 28.3427 263.025 26.956 263.025 25.164C263.025 23.4573 262.513 22.1133 261.489 21.132C260.507 20.1507 259.014 19.66 257.009 19.66H250.225V30.796ZM331.911 10.572V55.5H320.967V28.556L310.919 55.5H302.087L291.975 28.492V55.5H281.031V10.572H293.958L306.567 41.676L319.047 10.572H331.911Z" fill="url(#paint2_linear_762_2518)"/>
<defs>
<linearGradient id="paint0_linear_762_2518" x1="26" y1="27.5" x2="26" y2="67.5" gradientUnits="userSpaceOnUse">
<stop stop-color="#4D4DFB"/>
<stop offset="1" stop-color="#523DC0"/>
</linearGradient>
<linearGradient id="paint1_linear_762_2518" x1="209" y1="11" x2="208.5" y2="56" gradientUnits="userSpaceOnUse">
<stop stop-color="#FFC727"/>
<stop offset="0.324" stop-color="#DC5C4B"/>
<stop offset="0.724" stop-color="#DC4B6C"/>
<stop offset="1" stop-color="#F26727"/>
</linearGradient>
<linearGradient id="paint2_linear_762_2518" x1="286.5" y1="56" x2="286" y2="9.5" gradientUnits="userSpaceOnUse">
<stop stop-color="#EE6232"/>
<stop offset="0.33" stop-color="#DC5B4E"/>
<stop offset="0.665" stop-color="#DC4B6C"/>
<stop offset="0.9999" stop-color="#FEC329"/>
</linearGradient>
</defs>
</svg>
