<svg width="336" height="74" viewBox="0 0 336 74" fill="none" xmlns="http://www.w3.org/2000/svg">
<path d="M6 6.5V68H49" stroke="url(#paint0_linear_729_2779)" stroke-width="12" stroke-linecap="round"/>
<path d="M30.0995 47.552H44.4355V56H19.1555V11.072H30.0995V47.552ZM65.9115 56.512C62.4128 56.512 59.2555 55.7653 56.4395 54.272C53.6662 52.7787 51.4688 50.6453 49.8475 47.872C48.2688 45.0987 47.4795 41.856 47.4795 38.144C47.4795 34.4747 48.2902 31.2533 49.9115 28.48C51.5328 25.664 53.7515 23.5093 56.5675 22.016C59.3835 20.5227 62.5408 19.776 66.0395 19.776C69.5382 19.776 72.6955 20.5227 75.5115 22.016C78.3275 23.5093 80.5462 25.664 82.1675 28.48C83.7888 31.2533 84.5995 34.4747 84.5995 38.144C84.5995 41.8133 83.7675 45.056 82.1035 47.872C80.4822 50.6453 78.2422 52.7787 75.3835 54.272C72.5675 55.7653 69.4102 56.512 65.9115 56.512ZM65.9115 47.04C68.0022 47.04 69.7728 46.272 71.2235 44.736C72.7168 43.2 73.4635 41.0027 73.4635 38.144C73.4635 35.2853 72.7382 33.088 71.2875 31.552C69.8795 30.016 68.1302 29.248 66.0395 29.248C63.9062 29.248 62.1355 30.016 60.7275 31.552C59.3195 33.0453 58.6155 35.2427 58.6155 38.144C58.6155 41.0027 59.2982 43.2 60.6635 44.736C62.0715 46.272 63.8208 47.04 65.9115 47.04ZM88.2295 38.08C88.2295 34.4107 88.9122 31.1893 90.2775 28.416C91.6855 25.6427 93.5842 23.5093 95.9735 22.016C98.3628 20.5227 101.03 19.776 103.974 19.776C106.491 19.776 108.688 20.288 110.566 21.312C112.486 22.336 113.958 23.68 114.982 25.344V20.288H125.926V56H114.982V50.944C113.915 52.608 112.422 53.952 110.502 54.976C108.624 56 106.427 56.512 103.91 56.512C101.008 56.512 98.3628 55.7653 95.9735 54.272C93.5842 52.736 91.6855 50.5813 90.2775 47.808C88.9122 44.992 88.2295 41.7493 88.2295 38.08ZM114.982 38.144C114.982 35.4133 114.214 33.2587 112.678 31.68C111.184 30.1013 109.35 29.312 107.174 29.312C104.998 29.312 103.142 30.1013 101.606 31.68C100.112 33.216 99.3655 35.3493 99.3655 38.08C99.3655 40.8107 100.112 42.9867 101.606 44.608C103.142 46.1867 104.998 46.976 107.174 46.976C109.35 46.976 111.184 46.1867 112.678 44.608C114.214 43.0293 114.982 40.8747 114.982 38.144ZM155.603 19.904C159.784 19.904 163.112 21.2693 165.587 24C168.104 26.688 169.363 30.4 169.363 35.136V56H158.483V36.608C158.483 34.2187 157.864 32.3627 156.627 31.04C155.39 29.7173 153.726 29.056 151.635 29.056C149.544 29.056 147.88 29.7173 146.643 31.04C145.406 32.3627 144.787 34.2187 144.787 36.608V56H133.843V20.288H144.787V25.024C145.896 23.4453 147.39 22.208 149.267 21.312C151.144 20.3733 153.256 19.904 155.603 19.904ZM188.674 33.472C188.674 29.0347 189.635 25.088 191.555 21.632C193.475 18.1333 196.141 15.424 199.555 13.504C203.011 11.5413 206.915 10.56 211.267 10.56C216.6 10.56 221.165 11.968 224.963 14.784C228.76 17.6 231.299 21.44 232.579 26.304H220.547C219.651 24.4267 218.371 22.9973 216.707 22.016C215.085 21.0347 213.229 20.544 211.139 20.544C207.768 20.544 205.037 21.7173 202.947 24.064C200.856 26.4107 199.811 29.5467 199.811 33.472C199.811 37.3973 200.856 40.5333 202.947 42.88C205.037 45.2267 207.768 46.4 211.139 46.4C213.229 46.4 215.085 45.9093 216.707 44.928C218.371 43.9467 219.651 42.5173 220.547 40.64H232.579C231.299 45.504 228.76 49.344 224.963 52.16C221.165 54.9333 216.6 56.32 211.267 56.32C206.915 56.32 203.011 55.36 199.555 53.44C196.141 51.4773 193.475 48.768 191.555 45.312C189.635 41.856 188.674 37.9093 188.674 33.472ZM262.193 56L252.849 39.04H250.225V56H239.281V11.072H257.649C261.19 11.072 264.198 11.6907 266.673 12.928C269.19 14.1653 271.067 15.872 272.305 18.048C273.542 20.1813 274.161 22.5707 274.161 25.216C274.161 28.2027 273.307 30.8693 271.601 33.216C269.937 35.5627 267.462 37.2267 264.177 38.208L274.545 56H262.193ZM250.225 31.296H257.009C259.014 31.296 260.507 30.8053 261.489 29.824C262.513 28.8427 263.025 27.456 263.025 25.664C263.025 23.9573 262.513 22.6133 261.489 21.632C260.507 20.6507 259.014 20.16 257.009 20.16H250.225V31.296ZM331.911 11.072V56H320.967V29.056L310.919 56H302.087L291.975 28.992V56H281.031V11.072H293.958L306.567 42.176L319.047 11.072H331.911Z" fill="black"/>
<defs>
<linearGradient id="paint0_linear_729_2779" x1="26" y1="28" x2="26" y2="68" gradientUnits="userSpaceOnUse">
<stop stop-color="#4D4DFB"/>
<stop offset="1" stop-color="#523DC0"/>
</linearGradient>
</defs>
</svg>
